<svg width="30" height="10" viewBox="0 0 30 10" fill="none" xmlns="http://www.w3.org/2000/svg">
<path d="M0.0568182 9V0.272727H5.28977V1.21023H1.11364V4.15909H4.89773V5.09659H1.11364V9H0.0568182ZM14.4634 4.63636C14.4634 5.55682 14.2972 6.35227 13.9648 7.02273C13.6325 7.69318 13.1765 8.21023 12.5969 8.57386C12.0174 8.9375 11.3555 9.11932 10.6112 9.11932C9.86683 9.11932 9.2049 8.9375 8.62536 8.57386C8.04581 8.21023 7.58984 7.69318 7.25746 7.02273C6.92507 6.35227 6.75888 5.55682 6.75888 4.63636C6.75888 3.71591 6.92507 2.92045 7.25746 2.25C7.58984 1.57955 8.04581 1.0625 8.62536 0.698864C9.2049 0.335227 9.86683 0.153409 10.6112 0.153409C11.3555 0.153409 12.0174 0.335227 12.5969 0.698864C13.1765 1.0625 13.6325 1.57955 13.9648 2.25C14.2972 2.92045 14.4634 3.71591 14.4634 4.63636ZM13.4407 4.63636C13.4407 3.88068 13.3143 3.2429 13.0614 2.72301C12.8114 2.20312 12.4719 1.80966 12.043 1.54261C11.6168 1.27557 11.1396 1.14205 10.6112 1.14205C10.0827 1.14205 9.60405 1.27557 9.17507 1.54261C8.74893 1.80966 8.40945 2.20312 8.15661 2.72301C7.90661 3.2429 7.78161 3.88068 7.78161 4.63636C7.78161 5.39205 7.90661 6.02983 8.15661 6.54972C8.40945 7.0696 8.74893 7.46307 9.17507 7.73011C9.60405 7.99716 10.0827 8.13068 10.6112 8.13068C11.1396 8.13068 11.6168 7.99716 12.043 7.73011C12.4719 7.46307 12.8114 7.0696 13.0614 6.54972C13.3143 6.02983 13.4407 5.39205 13.4407 4.63636ZM16.2404 9V0.272727H17.2972V8.0625H21.354V9H16.2404ZM23.5018 0.272727L25.7518 3.90341H25.82L28.07 0.272727H29.3143L26.57 4.63636L29.3143 9H28.07L25.82 5.4375H25.7518L23.5018 9H22.2575L25.07 4.63636L22.2575 0.272727H23.5018Z" fill="white"/>
</svg>
